<svg width="100" height="100" viewBox="0 0 100 100" fill="none" xmlns="http://www.w3.org/2000/svg">
<path fill-rule="evenodd" clip-rule="evenodd" d="M71.9971 51.999H67.9991C66.8941 51.999 65.9991 51.104 65.9991 50C65.9991 48.896 66.8941 48 67.9991 48H71.9971C73.1021 48 73.9971 48.896 73.9971 50C73.9971 51.104 73.1031 51.999 71.9971 51.999ZM64.1421 38.688C63.3611 39.469 62.093 39.469 61.314 38.688C60.533 37.907 60.533 36.641 61.314 35.86L64.1421 33.032C64.9211 32.251 66.1891 32.251 66.9701 33.032C67.7491 33.813 67.7491 35.079 66.9701 35.86L64.1421 38.688ZM50.0011 61.998C43.3741 61.998 38.0011 56.626 38.0011 50C38.0011 43.373 43.3731 38.001 50.0011 38.001C56.6281 38.001 61.9991 43.373 61.9991 50C61.9991 56.626 56.6281 61.998 50.0011 61.998ZM50.0011 42.001C45.5831 42.001 42.0011 45.582 42.0011 50C42.0011 54.417 45.5841 57.999 50.0011 57.999C54.4181 57.999 57.9991 54.417 57.9991 50C57.9991 45.582 54.4191 42.001 50.0011 42.001ZM50.0011 34.002C48.8961 34.002 48.0011 33.106 48.0011 32.002V28.003C48.0011 26.899 48.8961 26.003 50.0011 26.003C51.1051 26.003 52.0011 26.899 52.0011 28.003V32.002C52.0011 33.106 51.1041 34.002 50.0011 34.002ZM35.8601 38.688L33.0321 35.86C32.2511 35.079 32.2511 33.813 33.0321 33.032C33.8131 32.251 35.0791 32.251 35.8601 33.032L38.6881 35.86C39.4691 36.641 39.4691 37.907 38.6881 38.688C37.9071 39.469 36.6411 39.469 35.8601 38.688ZM34.0021 50C34.0021 51.104 33.1061 51.999 32.0021 51.999H28.0021C26.8981 51.999 26.0031 51.104 26.0031 50C26.0031 48.896 26.8991 48 28.0021 48H32.0021C33.1071 48 34.0021 48.896 34.0021 50ZM35.8601 61.312C36.6411 60.532 37.9071 60.532 38.6881 61.312C39.4691 62.093 39.4691 63.36 38.6881 64.14L35.8601 66.968C35.0791 67.749 33.8131 67.749 33.0321 66.968C32.2511 66.188 32.2511 64.921 33.0321 64.14L35.8601 61.312ZM50.0011 65.998C51.1051 65.998 52.0011 66.893 52.0011 67.997V71.997C52.0011 73.101 51.1051 73.997 50.0011 73.997C48.8961 73.997 48.0011 73.101 48.0011 71.997V67.997C48.0011 66.893 48.8961 65.998 50.0011 65.998ZM64.1421 61.312L66.9701 64.14C67.7491 64.921 67.7491 66.188 66.9701 66.968C66.1891 67.749 64.9211 67.749 64.1421 66.968L61.314 64.14C60.533 63.36 60.533 62.093 61.314 61.312C62.093 60.531 63.3601 60.531 64.1421 61.312Z" fill="white"/>
</svg>
