<svg width="100" height="100" viewBox="0 0 100 100" fill="none" xmlns="http://www.w3.org/2000/svg">
<path fill-rule="evenodd" clip-rule="evenodd" d="M69.9981 65.641H30.0031C28.8991 65.641 28.0031 64.745 28.0031 63.641C28.0031 62.536 28.8991 61.641 30.0031 61.641H69.9981C71.1021 61.641 71.9981 62.536 71.9981 63.641C71.9981 64.744 71.1031 65.641 69.9981 65.641ZM69.9981 57.641H30.0031C28.8991 57.641 28.0031 56.746 28.0031 55.641C28.0031 54.537 28.8991 53.641 30.0031 53.641H69.9981C71.1021 53.641 71.9981 54.537 71.9981 55.641C71.9981 56.746 71.1031 57.641 69.9981 57.641ZM59.9991 45.643C58.3981 45.643 56.9161 46.123 55.6661 46.934C54.4341 41.617 49.6921 37.643 44.0011 37.643C37.3751 37.643 32.003 43.016 32.003 49.643H28.0031C28.0031 40.808 35.1661 33.644 44.0011 33.644C50.0051 33.644 55.2301 36.956 57.9661 41.848C58.6301 41.735 59.3031 41.643 59.9991 41.643C65.2211 41.643 69.6511 44.985 71.3001 49.643H66.9191C65.5351 47.253 62.9581 45.643 59.9991 45.643ZM30.0031 69.639H69.9981C71.1021 69.639 71.9981 70.535 71.9981 71.639C71.9981 72.744 71.1021 73.639 69.9981 73.639H30.0031C28.8991 73.639 28.0031 72.744 28.0031 71.639C28.0031 70.535 28.8981 69.639 30.0031 69.639Z" fill="white"/>
</svg>
