<svg width="100" height="100" viewBox="0 0 100 100" fill="none" xmlns="http://www.w3.org/2000/svg">
<path fill-rule="evenodd" clip-rule="evenodd" d="M63.9991 64.943V60.562C66.3881 59.177 67.9981 56.599 67.9981 53.64C67.9981 49.224 64.4171 45.642 59.9991 45.642C58.3991 45.642 56.9161 46.122 55.6661 46.933C54.4351 41.616 49.6921 37.642 44.0011 37.642C37.3741 37.642 32.003 43.015 32.003 49.642C32.003 53.191 33.553 56.371 36.003 58.566V63.482C31.226 60.714 28.0031 55.56 28.0031 49.642C28.0031 40.806 35.1661 33.643 44.0011 33.643C50.0051 33.643 55.2301 36.955 57.9661 41.847C58.6301 41.734 59.3031 41.642 59.9991 41.642C66.6261 41.642 71.9981 47.015 71.9981 53.64C71.9981 58.863 68.6551 63.293 63.9991 64.943ZM42.0011 57.641C43.1061 57.641 44.0011 58.537 44.0011 59.641C44.0011 60.746 43.1061 61.641 42.0011 61.641C40.8971 61.641 40.0021 60.746 40.0021 59.641C40.0021 58.537 40.8971 57.641 42.0011 57.641ZM42.0011 65.641C43.1061 65.641 44.0011 66.536 44.0011 67.641C44.0011 68.745 43.1061 69.639 42.0011 69.639C40.8971 69.639 40.0021 68.744 40.0021 67.641C40.0021 66.535 40.8971 65.641 42.0011 65.641ZM50.0011 61.641C51.1051 61.641 52.0011 62.536 52.0011 63.641C52.0011 64.745 51.1051 65.641 50.0011 65.641C48.8961 65.641 48.0011 64.745 48.0011 63.641C48.0011 62.535 48.8961 61.641 50.0011 61.641ZM50.0011 69.639C51.1051 69.639 52.0011 70.535 52.0011 71.639C52.0011 72.744 51.1051 73.639 50.0011 73.639C48.8961 73.639 48.0011 72.744 48.0011 71.639C48.0011 70.535 48.8961 69.639 50.0011 69.639ZM57.9991 57.641C59.1041 57.641 59.9991 58.537 59.9991 59.641C59.9991 60.746 59.1041 61.641 57.9991 61.641C56.8951 61.641 56.0001 60.746 56.0001 59.641C56.0001 58.537 56.8961 57.641 57.9991 57.641ZM57.9991 65.641C59.1041 65.641 59.9991 66.536 59.9991 67.641C59.9991 68.745 59.1041 69.639 57.9991 69.639C56.8951 69.639 56.0001 68.744 56.0001 67.641C56.0001 66.535 56.8961 65.641 57.9991 65.641Z" fill="white"/>
</svg>
