<svg width="100" height="100" viewBox="0 0 100 100" fill="none" xmlns="http://www.w3.org/2000/svg">
<path fill-rule="evenodd" clip-rule="evenodd" d="M65.9991 52H62.9991C61.8941 52 60.9991 51.105 60.9991 50.001C60.9991 48.897 61.8941 48.001 62.9991 48.001H65.9991C67.1031 48.001 67.9991 47.105 67.9991 46.002C67.9991 44.897 67.1031 44.002 65.9991 44.002C64.8941 44.002 63.9991 43.106 63.9991 42.002C63.9991 40.898 64.8941 40.002 65.9991 40.002C66.1361 40.002 66.2701 40.016 66.4011 40.043C69.5221 40.254 71.9971 42.826 71.9971 46.002C71.9971 49.314 69.3121 52 65.9991 52ZM55.9991 48.001H53.9991H47.0011H34.0021C32.8981 48.001 32.003 48.897 32.003 50.001C32.003 51.105 32.8981 52 34.0021 52H36.0021H40.0011H43.0011H47.0011H50.0011H53.9991H55.9991C59.3131 52 61.9991 54.687 61.9991 58C61.9991 61.176 59.5241 63.748 56.4031 63.959C56.2721 63.986 56.1381 64 55.9991 64C54.8951 64 53.9991 63.104 53.9991 62C53.9991 60.895 54.8951 60 55.9991 60C57.1041 60 57.9991 59.104 57.9991 58C57.9991 56.896 57.1041 56 55.9991 56H53.9991H50.0011H47.0011H43.0011H40.0011H36.0021H34.0021C30.6891 56 28.0031 53.314 28.0031 50.001C28.0031 46.826 30.4781 44.254 33.5991 44.042C33.7301 44.016 33.8651 44.002 34.0021 44.002H47.0011H53.9991H55.9991C57.1041 44.002 57.9991 43.106 57.9991 42.002C57.9991 40.898 57.1041 40.002 55.9991 40.002C54.8951 40.002 53.9991 39.107 53.9991 38.002C53.9991 36.898 54.8951 36.002 55.9991 36.002C56.1381 36.002 56.2721 36.017 56.4031 36.043C59.5241 36.254 61.9991 38.826 61.9991 42.002C61.9991 45.314 59.3131 48.001 55.9991 48.001Z" fill="white"/>
</svg>
