<svg width="100" height="100" viewBox="0 0 100 100" fill="none" xmlns="http://www.w3.org/2000/svg">
<path fill-rule="evenodd" clip-rule="evenodd" d="M50.0011 57.641C48.8961 57.641 48.0011 58.536 48.0011 59.641V75.639C48.0011 76.743 48.8961 77.639 50.0011 77.639C51.1051 77.639 52.0011 76.743 52.0011 75.639V59.641C52.0011 58.535 51.1041 57.641 50.0011 57.641ZM57.9991 53.641C56.8951 53.641 56.0001 54.537 56.0001 55.641V71.639C56.0001 72.744 56.8961 73.639 57.9991 73.639C59.1041 73.639 59.9991 72.744 59.9991 71.639V55.641C59.9991 54.537 59.1041 53.641 57.9991 53.641ZM42.0011 53.641C40.8971 53.641 40.0021 54.537 40.0021 55.641V71.639C40.0021 72.744 40.8981 73.639 42.0011 73.639C43.1061 73.639 44.0011 72.744 44.0011 71.639V55.641C44.0011 54.537 43.1061 53.641 42.0011 53.641ZM72.9971 38.642C72.9971 37.888 72.9191 37.152 72.7861 36.435C72.2101 36.567 71.6131 36.643 70.9981 36.643C66.5801 36.643 62.9991 33.062 62.9991 28.644C62.9991 28.029 63.0751 27.431 63.2061 26.856C62.4901 26.722 61.7551 26.644 60.9991 26.644C55.7591 26.644 51.3151 30.009 49.6811 34.691C47.9151 34.019 46.0031 33.644 44.0011 33.644C35.1661 33.644 28.0031 40.806 28.0031 49.641C28.0031 55.56 31.226 60.715 36.003 63.482V58.566C33.553 56.369 32.003 53.191 32.003 49.641C32.003 43.015 37.3741 37.643 44.0011 37.643C49.6921 37.643 54.4351 41.616 55.6661 46.933C56.9161 46.122 58.3991 45.642 59.9991 45.642C64.4171 45.642 67.9981 49.223 67.9981 53.641C67.9981 56.6 66.3881 59.178 63.9991 60.561V64.942C68.6551 63.294 71.9981 58.864 71.9981 53.641C71.9981 51.079 71.1871 48.708 69.8181 46.759C71.7861 44.621 72.9971 41.777 72.9971 38.642ZM67.0051 43.914C65.0321 42.49 62.6171 41.643 59.9991 41.643C59.3031 41.643 58.6301 41.735 57.9661 41.848C56.8101 39.78 55.2041 37.999 53.2871 36.627C54.0371 33.762 56.311 31.516 59.2111 30.852C60.1151 35.707 63.9371 39.528 68.7901 40.432C68.4891 41.746 67.8621 42.933 67.0051 43.914Z" fill="white"/>
</svg>
