<svg width="100" height="100" viewBox="0 0 100 100" fill="none" xmlns="http://www.w3.org/2000/svg">
<path fill-rule="evenodd" clip-rule="evenodd" d="M69.8181 46.759C71.1871 48.708 71.9981 51.078 71.9981 53.64C71.9981 58.863 68.6561 63.292 63.9991 64.943V60.562C66.3881 59.177 67.9981 56.599 67.9981 53.64C67.9981 49.223 64.4171 45.641 59.9991 45.641C58.3991 45.641 56.9161 46.121 55.6661 46.932C54.4341 41.615 49.6921 37.641 44.0011 37.641C37.3751 37.641 32.003 43.014 32.003 49.641C32.003 53.19 33.5531 56.37 36.0021 58.565V63.481C31.2261 60.713 28.0031 55.559 28.0031 49.641C28.0031 40.806 35.1661 33.642 44.0011 33.642C46.0031 33.642 47.9151 34.018 49.6811 34.69C51.3161 30.008 55.7591 26.643 60.9991 26.643C61.7541 26.643 62.4901 26.721 63.2071 26.854C63.0751 27.43 62.9991 28.028 62.9991 28.643C62.9991 33.061 66.5801 36.641 70.9981 36.641C71.6131 36.641 72.2101 36.566 72.7861 36.434C72.9201 37.151 72.9981 37.887 72.9981 38.641C72.9981 41.777 71.7861 44.621 69.8181 46.759ZM59.2111 30.852C56.311 31.516 54.0371 33.762 53.2871 36.627C55.2041 37.999 56.8091 39.779 57.9661 41.848C58.6301 41.735 59.3031 41.643 59.9991 41.643C62.6171 41.643 65.0321 42.49 67.0041 43.914C67.8631 42.934 68.4901 41.747 68.7901 40.432C63.9361 39.527 60.1151 35.706 59.2111 30.852ZM43.0731 59.641C43.6251 58.684 44.8481 58.358 45.8041 58.909L48.0001 60.177V57.642C48.0001 56.538 48.8961 55.642 50.0001 55.642C51.1041 55.642 51.9991 56.538 51.9991 57.642V60.177L54.1951 58.909C55.1511 58.358 56.3751 58.684 56.9261 59.641C57.4791 60.598 57.1511 61.821 56.1951 62.373L54.0001 63.641L56.1961 64.909C57.1521 65.462 57.48 66.684 56.927 67.641C56.375 68.596 55.1521 68.924 54.1961 68.371L52.0001 67.104V69.639C52.0001 70.744 51.1041 71.639 50.0011 71.639C48.8971 71.639 48.0011 70.744 48.0011 69.639V67.104L45.8051 68.372C44.8491 68.925 43.6251 68.597 43.0741 67.642C42.5221 66.685 42.8491 65.462 43.8051 64.91L46.0011 63.642L43.8051 62.374C42.8491 61.82 42.5211 60.598 43.0731 59.641ZM50.0011 65.641C51.1051 65.641 52.0001 64.745 52.0001 63.641C52.0001 62.536 51.1041 61.641 50.0011 61.641C48.8971 61.641 48.0011 62.536 48.0011 63.641C48.0011 64.744 48.8961 65.641 50.0011 65.641Z" fill="white"/>
</svg>
