<svg width="100" height="100" viewBox="0 0 100 100" fill="none" xmlns="http://www.w3.org/2000/svg">
<path fill-rule="evenodd" clip-rule="evenodd" d="M69.8171 46.759C71.1861 48.708 71.9971 51.078 71.9971 53.64C71.9971 58.863 68.6551 63.292 63.9991 64.943V60.562C66.3871 59.177 67.9981 56.599 67.9981 53.64C67.9981 49.223 64.4171 45.641 59.9991 45.641C58.3981 45.641 56.9151 46.121 55.6651 46.932C54.4341 41.615 49.6921 37.641 44.0011 37.641C37.3741 37.641 32.003 43.014 32.003 49.641C32.003 53.19 33.5531 56.37 36.0021 58.565V63.481C31.2251 60.713 28.0031 55.559 28.0031 49.641C28.0031 40.806 35.1651 33.642 44.0011 33.642C46.0031 33.642 47.9151 34.018 49.6811 34.69C51.3161 30.008 55.7591 26.643 60.9991 26.643C61.7541 26.643 62.4891 26.721 63.2061 26.854C63.0751 27.43 62.9991 28.028 62.9991 28.643C62.9991 33.061 66.5791 36.641 70.9971 36.641C71.6131 36.641 72.2101 36.566 72.7861 36.434C72.9191 37.151 72.9971 37.887 72.9971 38.641C72.9971 41.777 71.7861 44.621 69.8171 46.759ZM59.2101 30.852C56.3111 31.516 54.0361 33.762 53.2861 36.627C55.2041 37.999 56.8091 39.779 57.9661 41.848C58.6301 41.735 59.3021 41.643 59.9991 41.643C62.6161 41.643 65.0321 42.491 67.0041 43.914C67.8621 42.934 68.4891 41.747 68.7901 40.432C63.9361 39.527 60.1141 35.706 59.2101 30.852ZM42.0011 57.641C43.1051 57.641 44.0011 58.537 44.0011 59.641C44.0011 60.746 43.1051 61.641 42.0011 61.641C40.8971 61.641 40.0011 60.746 40.0011 59.641C40.0011 58.537 40.8961 57.641 42.0011 57.641ZM42.0011 65.641C43.1051 65.641 44.0011 66.536 44.0011 67.641C44.0011 68.745 43.1051 69.639 42.0011 69.639C40.8971 69.639 40.0011 68.744 40.0011 67.641C40.0011 66.535 40.8961 65.641 42.0011 65.641ZM50.0001 61.641C51.1041 61.641 52.0001 62.536 52.0001 63.641C52.0001 64.745 51.1041 65.641 50.0001 65.641C48.8961 65.641 48.0011 64.745 48.0011 63.641C48.0011 62.535 48.8961 61.641 50.0001 61.641ZM50.0001 69.639C51.1041 69.639 52.0001 70.535 52.0001 71.639C52.0001 72.744 51.1041 73.639 50.0001 73.639C48.8961 73.639 48.0011 72.744 48.0011 71.639C48.0011 70.535 48.8961 69.639 50.0001 69.639ZM57.9991 57.641C59.1031 57.641 59.9991 58.537 59.9991 59.641C59.9991 60.746 59.1031 61.641 57.9991 61.641C56.8951 61.641 55.9991 60.746 55.9991 59.641C55.9991 58.537 56.8951 57.641 57.9991 57.641ZM57.9991 65.641C59.1031 65.641 59.9991 66.536 59.9991 67.641C59.9991 68.745 59.1031 69.639 57.9991 69.639C56.8951 69.639 55.9991 68.744 55.9991 67.641C55.9991 66.535 56.8951 65.641 57.9991 65.641Z" fill="white"/>
</svg>
